<svg width="41" height="40" viewBox="0 0 41 40" fill="none" xmlns="http://www.w3.org/2000/svg">
<path d="M28.833 18.9333V25C28.833 30.5228 24.3558 35 18.833 35H15.4997C9.97683 35 5.49967 30.5228 5.49967 25V18.9333C5.49967 18.602 5.7683 18.3333 6.09967 18.3333H28.233C28.5644 18.3333 28.833 18.602 28.833 18.9333Z" stroke="#403F3D" stroke-width="2" stroke-linecap="round" stroke-linejoin="round"/>
<path d="M20.4997 15C20.4997 13.3334 21.6902 11.6667 24.0711 11.6667C24.5917 11.6667 25.2134 11.6667 25.833 11.6667C27.4899 11.6667 28.833 10.3236 28.833 8.66671V5.83337" stroke="#403F3D" stroke-width="2" stroke-linecap="round" stroke-linejoin="round"/>
<path d="M13.8337 15V12.1667C13.8337 10.5098 15.1768 9.16667 16.8337 9.16667H20.167C21.2716 9.16667 22.167 8.27124 22.167 7.16667V5" stroke="#403F3D" stroke-width="2" stroke-linecap="round" stroke-linejoin="round"/>
<path d="M27.167 18.3334H31.3337C33.6348 18.3334 35.5003 20.1989 35.5003 22.5C35.5003 24.8012 33.6348 26.6667 31.3337 26.6667H28.8337" stroke="#403F3D" stroke-width="2" stroke-linecap="round" stroke-linejoin="round"/>
</svg>
